<svg width="59" height="59" viewBox="0 0 59 59" fill="none" xmlns="http://www.w3.org/2000/svg">
<path d="M29.5002 53.7811C42.847 53.7811 53.6668 42.9613 53.6668 29.6144C53.6668 16.2675 42.847 5.44775 29.5002 5.44775C16.1533 5.44775 5.3335 16.2675 5.3335 29.6144C5.3335 42.9613 16.1533 53.7811 29.5002 53.7811Z" stroke="white" stroke-width="2.6875" stroke-linecap="round" stroke-linejoin="round"/>
<path d="M19.8333 7.86475H22.25C17.5375 21.9781 17.5375 37.2514 22.25 51.3647H19.8333" stroke="white" stroke-width="2.6875" stroke-linecap="round" stroke-linejoin="round"/>
<path d="M36.75 7.86475C41.4625 21.9781 41.4625 37.2514 36.75 51.3647" stroke="white" stroke-width="2.6875" stroke-linecap="round" stroke-linejoin="round"/>
<path d="M7.75 39.2814V36.8647C21.8633 41.5772 37.1367 41.5772 51.25 36.8647V39.2814" stroke="white" stroke-width="2.6875" stroke-linecap="round" stroke-linejoin="round"/>
<path d="M7.75 22.3649C21.8633 17.6524 37.1367 17.6524 51.25 22.3649" stroke="white" stroke-width="2.6875" stroke-linecap="round" stroke-linejoin="round"/>
</svg>
